<mxfile host="app.diagrams.net" modified="2024-10-16T12:40:41.000Z" agent="Mozilla/5.0 (Windows NT 10.0; Win64; x64) AppleWebKit/537.36 (KHTML, like Gecko) Chrome/127.0.0.0 Safari/537.36 OPR/113.0.0.0" etag="ZmjfL1L_9ML3TaUCKmFK" version="24.6.4" type="github">
  <diagram name="Page-1" id="NE_QDzCsGQ2IUwWmbjlV">
    <mxGraphModel dx="1229" dy="773" grid="1" gridSize="10" guides="1" tooltips="1" connect="1" arrows="1" fold="1" page="1" pageScale="1" pageWidth="850" pageHeight="1100" math="0" shadow="0">
      <root>
        <mxCell id="0" />
        <mxCell id="1" parent="0" />
      </root>
    </mxGraphModel>
  </diagram>
</mxfile>
